<?xml version="1.0" encoding="UTF-8"?>
<svg version="1.1" xmlns="http://www.w3.org/2000/svg" width="140" height="50">
<path d="M0,0 L13,0 L13,6 L16,6 L16,13 L13,13 L14,37 L17,38 L20,28 L25,15 L18,14 L18,5 L39,5 L39,15 L31,36 L39,36 L39,45 L5,45 L0,40 L0,13 L-2,13 L-2,6 L0,6 Z " fill="#221815" transform="translate(85,4)"/>
<path d="M0,0 L22,0 L27,4 L28,6 L28,19 L25,23 L28,24 L29,26 L29,43 L26,47 L23,48 L0,48 Z M13,9 L13,18 L16,17 L16,10 Z M13,27 L13,39 L16,38 L16,28 Z " fill="#221815" transform="translate(16,1)"/>
<path d="M0,0 L2,0 L2,15 L-3,17 L-4,20 L-5,41 L-18,41 L-18,1 L-5,1 L-2,1 Z " fill="#221815" transform="translate(64,8)"/>
<path d="M0,0 L13,0 L13,40 L0,40 Z " fill="#221715" transform="translate(68,9)"/>
<path d="M0,0 L13,0 L13,7 L0,7 Z " fill="#231717" transform="translate(68,1)"/>
</svg>
