<?xml version="1.0" encoding="UTF-8"?>
<svg version="1.1" xmlns="http://www.w3.org/2000/svg" width="356" height="141">
<path d="M0 0 C1.81528718 1.57516983 3.52440279 3.15597295 5.15234375 4.921875 C3.83234375 6.241875 2.51234375 7.561875 1.15234375 8.921875 C0.7140625 8.54675781 0.27578125 8.17164062 -0.17578125 7.78515625 C-12.79817993 -2.39999065 -26.73256269 -4.47465326 -42.47265625 -4.453125 C-43.47360825 -4.45230927 -43.47360825 -4.45230927 -44.49478149 -4.45147705 C-58.6470501 -4.39833616 -74.89105534 -3.09750582 -85.51953125 7.60546875 C-86.84765625 8.921875 -86.84765625 8.921875 -88.84765625 8.921875 C-89.50765625 7.601875 -90.16765625 6.281875 -90.84765625 4.921875 C-68.50374392 -19.31558922 -25.41149242 -18.54446361 0 0 Z " fill="#000000" transform="translate(223.84765625,13.078125)"/>
<path d="M0 0 C2.18510692 1.81495219 3.11703902 3.1637279 4.14453125 5.78125 C2.49453125 7.10125 0.84453125 8.42125 -0.85546875 9.78125 C-1.80421875 9.018125 -2.75296875 8.255 -3.73046875 7.46875 C-16.12997904 -1.33814564 -34.49315753 -0.30866791 -48.76953125 2.08203125 C-55.03064114 3.50068779 -60.48042121 6.31347739 -65.85546875 9.78125 C-67.17546875 8.46125 -68.49546875 7.14125 -69.85546875 5.78125 C-67.26346766 -0.82183658 -60.09631255 -3.69181398 -54.01171875 -6.55859375 C-36.02158045 -13.21021068 -15.83013808 -10.19803917 0 0 Z " fill="#000000" transform="translate(213.85546875,25.21875)"/>
<path d="M0 0 C0.02777514 1.33320679 0.04673341 2.66659713 0.0625 4 C0.07410156 4.7425 0.08570313 5.485 0.09765625 6.25 C-0.0311329 9.87670253 -0.51613021 13.40336158 -1 17 C-1.93457031 16.855625 -2.86914062 16.71125 -3.83203125 16.5625 C-11.69901597 15.42372405 -19.42102807 14.80641258 -27.375 14.8125 C-28.20104736 14.81185547 -29.02709473 14.81121094 -29.87817383 14.81054688 C-34.07330926 14.74762987 -34.07330926 14.74762987 -38 16 C-38 18.31 -38 20.62 -38 23 C-36.9790625 23.16435547 -36.9790625 23.16435547 -35.9375 23.33203125 C-32.62256073 23.87423541 -29.31119275 24.4353545 -26 25 C-25.32614258 25.1124707 -24.65228516 25.22494141 -23.95800781 25.34082031 C-21.84515167 25.69639137 -19.73504507 26.06564378 -17.625 26.4375 C-16.95984375 26.54747314 -16.2946875 26.65744629 -15.609375 26.77075195 C-7.8812638 28.16254909 -3.51934151 30.80204593 1 37 C2.19104332 40.57312995 2.20528823 43.54553322 2.25 47.3125 C2.27578125 48.60800781 2.3015625 49.90351562 2.328125 51.23828125 C1.85203375 56.69632737 0.15611578 59.84388422 -3.6875 63.6875 C-14.03494751 71.69261487 -29.1469782 71.11510939 -41.49804688 69.71728516 C-47.3985858 68.85550218 -53.33540423 67.88819859 -59 66 C-58.67 60.39 -58.34 54.78 -58 49 C-52.17675634 49.53753018 -46.41273349 50.22205672 -40.625 51.0625 C-28.47526996 53.08964096 -28.47526996 53.08964096 -17 50 C-17.10169161 47.05272465 -17.10169161 47.05272465 -18 44 C-21.28414041 42.31044004 -24.37210811 41.67666427 -28.01953125 41.2890625 C-28.95990234 41.17820313 -29.90027344 41.06734375 -30.86914062 40.953125 C-32.81895565 40.73576009 -34.76948904 40.52473788 -36.72070312 40.3203125 C-43.99580414 39.44630719 -50.02273978 37.89891127 -55.375 32.6875 C-59.05626391 26.59925584 -60.13961938 19.80776925 -58.5 12.890625 C-56.68283301 7.39782478 -54.07965346 3.6574135 -48.8515625 0.84375 C-33.68912289 -6.20854749 -15.83535435 -3.44603566 0 0 Z " fill="#000000" transform="translate(59,37)"/>
<path d="M0 0 C1.11955078 -0.01160156 2.23910156 -0.02320313 3.39257812 -0.03515625 C12.75907847 -0.00219496 20.53935073 1.19444873 27.50390625 7.7890625 C36.00379198 17.19220584 34.52678558 33.07962043 34.09423828 44.90185547 C33.50455424 54.20637152 31.41873759 61.89376241 24.75 68.5625 C17.01532731 73.54706685 9.06231237 73.86972424 0.0625 73.8125 C-1.04480469 73.83248047 -2.15210938 73.85246094 -3.29296875 73.87304688 C-11.27971886 73.86835431 -19.67158446 73.04270592 -26.03393555 67.72827148 C-34.16385206 59.20101358 -34.24241912 47.68365398 -34.25 36.5625 C-34.26224609 35.62857422 -34.27449219 34.69464844 -34.28710938 33.73242188 C-34.3085496 23.43396816 -33.16990225 12.93305539 -25.9375 5.0625 C-17.77934395 0.2740171 -9.2615559 -0.09630734 0 0 Z M-12.0625 19.375 C-14.59610335 24.84547921 -14.39476218 30.34506141 -14.375 36.25 C-14.39111328 37.20519531 -14.40722656 38.16039063 -14.42382812 39.14453125 C-14.42799606 45.22137434 -13.90070473 49.94592865 -11.0625 55.375 C-6.08748684 58.55464585 0.24595367 57.86020625 5.9375 57.375 C9.54764831 56.49250197 9.54764831 56.49250197 11.9375 54.375 C14.56901579 48.77506156 14.26922504 42.99338624 14.25 36.9375 C14.26611328 35.92623047 14.28222656 34.91496094 14.29882812 33.87304688 C14.30266775 27.98690493 14.0700316 23.44574287 10.9375 18.375 C4.64359722 14.52223995 -6.28767613 14.81592852 -12.0625 19.375 Z " fill="#000000" transform="translate(181.0625,33.625)"/>
<path d="M0 0 C6.6 0 13.2 0 20 0 C20 8.91 20 17.82 20 27 C28.25 27 36.5 27 45 27 C45 18.09 45 9.18 45 0 C51.27 0 57.54 0 64 0 C64 23.43 64 46.86 64 71 C57.73 71 51.46 71 45 71 C45 61.76 45 52.52 45 43 C36.75 43 28.5 43 20 43 C20 52.24 20 61.48 20 71 C13.4 71 6.8 71 0 71 C0 47.57 0 24.14 0 0 Z " fill="#000000" transform="translate(72,35)"/>
<path d="M0 0 C6.27 0 12.54 0 19 0 C19 8.91 19 17.82 19 27 C23.05390277 25.64869908 23.27640376 23.98592198 25.16796875 20.21484375 C35.17206822 1.49233518 35.17206822 1.49233518 42.14746094 -1.22705078 C49.1786333 -2.27872186 56.07998609 -1.47680559 63 0 C58.92253958 6.31865763 54.5455204 12.29661782 49.875 18.1875 C46.05520116 23.01699089 42.3250917 27.81384951 39 33 C40.28297023 35.68384697 41.68416418 38.11726949 43.3984375 40.546875 C44.1095166 41.55621094 44.1095166 41.55621094 44.83496094 42.5859375 C45.34317383 43.30007812 45.85138672 44.01421875 46.375 44.75 C46.89868164 45.48992187 47.42236328 46.22984375 47.96191406 46.9921875 C52.31180007 53.10638105 56.78888143 59.12028957 61.34130859 65.08496094 C65 69.8985764 65 69.8985764 65 71 C45.03810407 73.85553469 45.03810407 73.85553469 38.68408203 69.36230469 C34.76387197 65.18738344 31.99384656 60.37946875 29.32714844 55.33984375 C27.54276866 52.19387323 25.38334116 49.42766955 23.12353516 46.61132812 C22 45 22 45 22 43 C21.01 43 20.02 43 19 43 C19 52.24 19 61.48 19 71 C12.73 71 6.46 71 0 71 C0 47.57 0 24.14 0 0 Z " fill="#000000" transform="translate(226,35)"/>
<path d="M0 0 C18.81 0 37.62 0 57 0 C57 16 57 16 54.62109375 20.125 C53.08911133 21.62182617 53.08911133 21.62182617 51.4375 23 C50.32495414 24.05799816 49.21297174 25.11658915 48.1015625 26.17578125 C47.56305664 26.66127441 47.02455078 27.14676758 46.46972656 27.64697266 C44.59613365 29.37179856 42.9520536 31.24101575 41.3125 33.1875 C38.03301829 36.9789008 34.67599005 40.69675226 31.30859375 44.41015625 C28.49423779 47.56737792 25.75252041 50.78872618 23 54 C34.22 54.33 45.44 54.66 57 55 C57 60.28 57 65.56 57 71 C37.53 71 18.06 71 -2 71 C-2 55 -2 55 2.0625 49.5 C3.6882405 47.97824602 5.33328774 46.47676592 7 45 C8.18937823 43.68688603 9.35788048 42.35441939 10.5 41 C13.13689636 37.97245233 15.81016569 34.98062721 18.5 32 C21.32544666 28.86544464 24.14504403 25.72650936 26.9375 22.5625 C27.48277344 21.94503906 28.02804687 21.32757813 28.58984375 20.69140625 C30.18122039 18.84382494 30.18122039 18.84382494 32 16 C21.44 16 10.88 16 0 16 C0 10.72 0 5.44 0 0 Z " fill="#000000" transform="translate(299,35)"/>
<path d="M0 0 C1.975519 0.98118904 3.94376921 1.97031942 5.89453125 3 C20.33506346 10.52907586 37.33935831 10.62646166 53 7 C57.19311222 5.56148705 60.84724697 3.87973258 64.375 1.1875 C64.91125 0.795625 65.4475 0.40375 66 0 C66.99 0.33 67.98 0.66 69 1 C70.1875 3.5625 70.1875 3.5625 71 6 C56.27705907 17.73278851 42.36008268 20.0558514 24 19 C14.44913964 17.76289624 5.21491905 14.13700492 -1.125 6.625 C-1.74375 5.75875 -2.3625 4.8925 -3 4 C-2.01 2.68 -1.02 1.36 0 0 Z " fill="#000000" transform="translate(147,106)"/>
<path d="M0 0 C2.26999615 1.07386235 4.36767861 2.23434461 6.48828125 3.5859375 C24.01529149 14.68880152 45.75120735 15.83016259 65.95703125 12.26953125 C75.06771235 10.00801466 82.91243959 6.17303649 90 0 C91.32 0.66 92.64 1.32 94 2 C90.53224383 10.14478116 81.28978589 14.35726172 73.578125 17.7109375 C55.34661707 24.27905717 33.32443572 24.481465 15.58984375 16.28125 C8.97571077 13.01745354 3.1253279 9.395082 -2 4 C-1.34 2.68 -0.68 1.36 0 0 Z " fill="#000000" transform="translate(135,119)"/>
</svg>
