<svg xmlns="http://www.w3.org/2000/svg" xml:space="preserve" width="1000px" height="311px" x="0px" y="0px" viewBox="0 0 1000 311"><path d="M469.637 306.369H402.46V113.645c0-13.379-3.49-23.847-10.467-31.417-6.351-6.949-14.815-10.441-25.283-10.441-11.058 0-19.465 3.492-25.289 10.441-5.817 7.57-8.724 18.357-8.724 32.27V306.37h-67.125V114.497c0-13.356-3.222-24.093-9.622-32.27-6.402-6.949-15.077-10.441-26.183-10.441-10.422 0-18.887 3.492-25.289 10.441-6.342 7.57-9.576 18.038-9.576 31.417v192.725h-66.268V115.395c0-19.197 1.162-34.007 3.49-44.48 2.906-11.052 8.146-21.531 15.707-31.392 9.254-12.807 21.212-22.405 35.757-28.802 13.963-6.402 29.357-9.582 46.178-9.582 12.22 0 23.271 1.431 33.161 4.348 9.896 2.936 22.109 8.747 36.603 17.454 12.801-8.707 24.175-14.519 34.064-17.454 9.254-2.917 20.312-4.348 33.115-4.348 20.941 0 39.828 5.533 56.703 16.56 16.869 11.055 29.035 25.898 36.603 44.486 3.49 6.401 6.134 13.645 7.878 21.818 1.108 7.539 1.743 18.012 1.743 31.392v190.974zM714.698 197.33c0 19.23-2.912 35.217-8.729 48.027-5.243 13.322-14.28 25.254-27.027 35.762-9.362 9.248-19.522 16.229-30.52 20.885-11.642 5.236-23.277 7.857-34.907 7.857-12.223 0-24.127-2.621-35.762-7.857-11.631-4.656-21.842-11.637-30.521-20.885-12.217-10.508-20.94-22.439-26.183-35.762-5.18-12.215-7.83-28.244-7.83-48.027V1.139h66.282v197.094c0 13.959 2.911 24.693 8.724 32.262 5.818 8.145 14.28 12.213 25.289 12.213 9.887 0 18.035-4.068 24.434-12.213 6.343-8.115 9.567-18.881 9.567-32.262V1.139h67.183V197.33zM999 301.154H758.278L882.101 66.575l-79.336-.9V1.139h194.434L874.277 235.73H999zM84.73 93.997c0 23.09-18.724 41.874-41.836 41.874C19.775 135.871 1 117.087 1 93.997c0-23.141 18.775-41.864 41.894-41.864 23.112 0 41.836 18.723 41.836 41.864M84.73 230.018c0 23.141-18.724 41.883-41.836 41.883C19.775 271.9 1 253.158 1 230.018c0-23.111 18.775-41.842 41.894-41.842 23.112 0 41.836 18.73 41.836 41.842"/></svg>