<?xml version="1.0" encoding="UTF-8"?>
<svg version="1.1" xmlns="http://www.w3.org/2000/svg" width="2528" height="843">
<path d="M0 0 C0.73765594 -0.00067474 1.47531189 -0.00134949 2.23532104 -0.00204468 C13.45937954 0.01426737 24.20206444 0.50258138 35.125 3.25 C35.7756543 3.41097168 36.42630859 3.57194336 37.09667969 3.73779297 C62.89485455 10.32981556 82.65344451 24.64483471 101.125 43.25 C101.39699219 42.65445313 101.66898438 42.05890625 101.94921875 41.4453125 C110.98666941 24.57140131 137.71831711 11.89906877 155.125 6.25 C169.95690754 1.99372239 183.94865216 0.01314303 199.375 0 C200.08642151 -0.00067474 200.79784302 -0.00134949 201.53082275 -0.00204468 C213.27734659 0.0156086 224.63337527 0.68282966 236.125 3.25 C236.87845703 3.41628906 237.63191406 3.58257812 238.40820312 3.75390625 C270.92555671 11.22597899 298.8586042 30.23347958 317.125 58.25 C334.28949199 85.68373173 338.48828885 117.20081066 338.35205078 148.94018555 C338.35148477 150.82473749 338.35180693 152.70928987 338.35293579 154.59384155 C338.35350289 159.6442482 338.34185437 164.69455725 338.32778788 169.74494147 C338.31517171 175.04730705 338.31410153 180.34967556 338.31173706 185.65205383 C338.30555396 195.6635363 338.28918665 205.67497439 338.26903808 215.68643743 C338.24657964 227.09657007 338.23566079 238.50670498 338.22564721 249.91685426 C338.20481713 273.36126634 338.16818116 296.8056177 338.125 320.25 C311.395 320.25 284.665 320.25 257.125 320.25 C257.10312622 311.7421875 257.10312622 311.7421875 257.08081055 303.0625 C257.03040972 284.29501992 256.96395333 265.52762185 256.88928509 246.76022339 C256.84441645 235.38475474 256.80498137 224.00931677 256.77856445 212.63378906 C256.75551184 202.71302666 256.72203327 192.79236209 256.67629844 182.8716774 C256.65246383 177.62407251 256.63367131 172.37656393 256.62738609 167.12890625 C256.62129079 162.17782401 256.60113256 157.22698787 256.57072449 152.27599716 C256.56201491 150.47022086 256.55820677 148.6644123 256.55999184 146.85861588 C256.57279675 127.90810532 254.98200745 108.43297428 241.125 93.98828125 C225.64935256 80.53776737 207.76938435 79.03158531 188.125 80.25 C175.02129719 81.84014909 161.70017101 88.41491598 153.16796875 98.58203125 C141.1278589 114.19619969 139.82781955 129.98870812 139.80615234 148.94018555 C139.79684033 150.81370978 139.78666978 152.68722991 139.77571106 154.56074524 C139.74854056 159.61777515 139.73330026 164.6747774 139.72028303 169.73186088 C139.70459553 175.02763759 139.67782335 180.3233583 139.6522522 185.61909485 C139.60556358 195.63434291 139.5687716 205.64960162 139.53557932 215.66490251 C139.49728768 227.07247227 139.44789606 238.47998565 139.39759517 249.8875078 C139.29442286 273.34163531 139.20657987 296.79578675 139.125 320.25 C112.395 320.25 85.665 320.25 58.125 320.25 C58.1156543 314.48724609 58.10630859 308.72449219 58.09667969 302.78710938 C58.06287174 283.72026452 58.00750086 264.65352697 57.94109726 245.5867691 C57.90137138 234.0296863 57.86894618 222.47267096 57.85400391 210.91552734 C57.84095389 200.83653276 57.81390404 190.75768701 57.77038693 180.67877626 C57.74784733 175.34730512 57.7320848 170.01601703 57.73311615 164.68449402 C57.73386721 159.6545605 57.7157388 154.62503048 57.68383217 149.59520149 C57.67539304 147.76040046 57.67354194 145.92555384 57.67919731 144.09074211 C57.72504617 126.91232902 55.46186561 110.19048868 44.875 95.9375 C31.49440268 82.86100717 16.76980825 79.84326087 -1.32397461 79.95678711 C-17.18093315 80.22300161 -32.08361531 85.38733596 -43.625 96.625 C-56.56852811 111.7257828 -58.48041628 129.49667935 -58.42089844 148.59960938 C-58.42965536 150.48372746 -58.44014843 152.36783813 -58.45222473 154.25193787 C-58.47984599 159.31493885 -58.48349474 164.37769432 -58.48250484 169.44075966 C-58.48565467 174.75121041 -58.51131555 180.0615539 -58.53448486 185.37194824 C-58.57489087 195.40475759 -58.59534921 205.43750219 -58.60845876 215.47038031 C-58.62438122 226.90227239 -58.66281871 238.33405511 -58.70305204 249.76588345 C-58.78524012 273.26057384 -58.83649263 296.7551946 -58.875 320.25 C-85.605 320.25 -112.335 320.25 -139.875 320.25 C-139.94297215 295.8915713 -139.99812944 271.53322054 -140.03043652 247.17472076 C-140.04584235 235.86221396 -140.06681026 224.54977069 -140.10131836 213.23730469 C-140.13141466 203.3663311 -140.15062053 193.49540356 -140.15726548 183.62438536 C-140.16114382 178.40778106 -140.17012393 173.1913084 -140.19219017 167.9747467 C-140.37781797 122.27127863 -137.24864813 80.21349666 -105.875 44.25 C-105.01648438 43.19232422 -105.01648438 43.19232422 -104.140625 42.11328125 C-84.70230121 18.55588409 -53.38760209 5.64213243 -23.875 1.25 C-22.7303125 1.06566406 -21.585625 0.88132812 -20.40625 0.69140625 C-13.64553526 -0.12082644 -6.80042069 0.00557574 0 0 Z " fill="#000000" transform="translate(676.875,316.75)"/>
<path d="M0 0 C30.96486822 27.57687921 50.02205627 68.52368885 52.48386294 109.88058484 C52.54441281 110.99010504 52.54441281 110.99010504 52.60618591 112.12203979 C52.64918617 112.90957166 52.69218642 113.69710352 52.73648971 114.50849998 C53.14075974 122.43953164 53.19674667 130.3540046 53.17602539 138.29345703 C53.1757422 139.85274249 53.17590381 141.41202809 53.1764679 142.97131348 C53.17675075 147.13954824 53.17093813 151.30775328 53.16389394 155.47598124 C53.15757389 159.85612741 53.15704984 164.23627453 53.15586853 168.61642456 C53.15278042 176.88191833 53.14460156 185.14739862 53.13451904 193.4128865 C53.12117058 204.60249631 53.11583761 215.79210991 53.11001682 226.98172569 C53.10065952 244.56985845 53.08072394 262.15796277 53.0625 279.74609375 C27.6525 279.74609375 2.2425 279.74609375 -23.9375 279.74609375 C-24.2675 269.51609375 -24.5975 259.28609375 -24.9375 248.74609375 C-26.443125 250.35484375 -27.94875 251.96359375 -29.5 253.62109375 C-49.88736699 274.39342092 -80.91028525 285.33065115 -109.609375 286.046875 C-112.30336356 286.06618024 -114.99383571 286.07312741 -117.6875 286.05859375 C-118.39093536 286.05677094 -119.09437073 286.05494812 -119.81912231 286.05307007 C-130.48540253 286.00658763 -140.56677294 285.43439602 -150.9375 282.74609375 C-151.59572754 282.59043945 -152.25395508 282.43478516 -152.93212891 282.27441406 C-170.12407966 278.1836198 -186.8123032 270.3670304 -200.9375 259.74609375 C-201.76894531 259.12347656 -202.60039062 258.50085938 -203.45703125 257.859375 C-239.33567969 230.00398338 -261.24922222 190.32330989 -267.2565918 145.35766602 C-272.23429657 101.49634387 -261.62149043 55.98048125 -234.61328125 20.7109375 C-232.4302608 18.01644536 -230.20143465 15.37275826 -227.9375 12.74609375 C-227.33035156 12.01648438 -226.72320312 11.286875 -226.09765625 10.53515625 C-222.08184195 5.78174341 -217.72849032 1.70804203 -212.9375 -2.25390625 C-212.19886719 -2.88039063 -211.46023437 -3.506875 -210.69921875 -4.15234375 C-149.99994898 -54.42047878 -58.78884087 -51.43911946 0 0 Z M-157.9375 54.74609375 C-158.69546875 55.41125 -159.4534375 56.07640625 -160.234375 56.76171875 C-175.51054391 70.98435877 -186.0525546 93.51517537 -187.06176758 114.30615234 C-187.78682001 140.47538206 -183.21836714 163.8090313 -165.5 184.05859375 C-163.99828682 185.63947888 -162.47797886 187.2029589 -160.9375 188.74609375 C-160.25171875 189.44347656 -159.5659375 190.14085937 -158.859375 190.859375 C-144.53873315 204.51702417 -125.64935631 211.16200669 -106.05639648 211.04638672 C-84.38294724 210.47838935 -65.3236151 200.22467021 -50.50390625 184.7578125 C-37.87881792 169.94206957 -28.68811395 150.39259803 -27.9375 130.74609375 C-27.89753906 129.70195312 -27.85757813 128.6578125 -27.81640625 127.58203125 C-27.35640693 103.17500839 -34.70442835 78.6442107 -51.85253906 60.77124023 C-53.19920684 59.41448417 -54.56795612 58.07975438 -55.9375 56.74609375 C-56.68902344 55.99714844 -57.44054687 55.24820313 -58.21484375 54.4765625 C-73.6571757 39.87197007 -92.60152038 35.18686158 -113.2734375 35.47265625 C-130.13139841 36.0388864 -145.54898368 43.53743612 -157.9375 54.74609375 Z " fill="#000000" transform="translate(429.9375,357.25390625)"/>
<path d="M0 0 C4.21074504 3.88580009 8.01737211 7.92713399 11.625 12.375 C12.37265625 13.27347656 13.1203125 14.17195313 13.890625 15.09765625 C27.95533081 32.59008124 37.80996326 52.64166721 43.9375 74.1875 C44.16800049 74.97874268 44.39850098 75.76998535 44.63598633 76.58520508 C50.52101578 98.6881049 50.03641956 121.26950722 49.92918181 143.93361235 C49.91018296 148.63937258 49.90864658 153.34514116 49.90510559 158.05093384 C49.89585226 166.92549688 49.87133133 175.79994652 49.84105712 184.67446005 C49.80096631 196.69238572 49.78500388 208.71034331 49.76755047 220.72831917 C49.7395038 239.61063074 49.6796902 258.49270322 49.625 277.375 C24.215 277.375 -1.195 277.375 -27.375 277.375 C-27.705 267.475 -28.035 257.575 -28.375 247.375 C-30.685 249.685 -32.995 251.995 -35.375 254.375 C-65.2578668 279.0429463 -101.40398779 285.64871257 -139.23632812 283.18896484 C-176.22681838 279.54775981 -210.39868861 257.20875125 -234.01904297 229.44238281 C-241.26271344 220.45169567 -247.08827815 210.6143658 -252.375 200.375 C-252.72691406 199.69711426 -253.07882812 199.01922852 -253.44140625 198.32080078 C-263.84489979 178.00807561 -270.38463819 155.57172408 -270.61328125 132.65234375 C-270.62810799 131.43080345 -270.62810799 131.43080345 -270.64323425 130.18458557 C-270.96066822 97.23548857 -266.63785401 67.6086323 -250.375 38.375 C-249.80007813 37.3128125 -249.22515625 36.250625 -248.6328125 35.15625 C-229.46332046 0.88084487 -195.93830315 -24.98063043 -158.40234375 -36.1640625 C-101.82599699 -52.03413124 -43.85603315 -38.59863312 0 0 Z M-166.6328125 57.2890625 C-184.50141833 78.68331253 -192.29804352 104.11717961 -190.1015625 131.82421875 C-187.31786156 154.85540484 -176.87221129 176.17066279 -159.05859375 191.31640625 C-149.88397363 198.35428806 -140.45302288 203.09409874 -129.375 206.375 C-128.54742188 206.62121094 -127.71984375 206.86742187 -126.8671875 207.12109375 C-107.09469915 211.98043411 -87.40903102 206.60613184 -70.375 196.375 C-67.18766734 194.22151887 -64.27344228 191.89827856 -61.375 189.375 C-60.49521484 188.70791016 -60.49521484 188.70791016 -59.59765625 188.02734375 C-43.85903661 175.78619514 -35.87639108 155.42304247 -31.765625 136.58203125 C-28.5442021 110.13414921 -34.04706549 84.6427263 -50.375 63.375 C-62.5675124 48.27660547 -80.60027209 35.51848804 -100.375 33.375 C-125.61024768 31.74028646 -148.79297573 38.42492888 -166.6328125 57.2890625 Z " fill="#000000" transform="translate(1325.375,359.625)"/>
<path d="M0 0 C85.8 0 171.6 0 260 0 C260 24.09 260 48.18 260 73 C255.38 77.62 250.76 82.24 246 87 C243.2938224 90.05634544 243.2938224 90.05634544 240.62890625 93.1484375 C236.56710907 97.76544437 232.05445391 101.98001679 227.671875 106.2890625 C223.5234873 110.39511971 219.57700023 114.57810169 215.7734375 119.00390625 C211.84285935 123.42797108 207.536629 127.49980444 203.31640625 131.64453125 C199.92081439 135.00328124 196.61582231 138.37852424 193.5 142 C189.05564748 147.16560744 184.17492912 151.87292293 179.31640625 156.64453125 C175.92081439 160.00328124 172.61582231 163.37852424 169.5 167 C165.05564748 172.16560744 160.17492912 176.87292293 155.31640625 181.64453125 C151.9311829 184.99302523 148.63554742 188.35660669 145.53125 191.96875 C140.88053801 197.37420611 135.75310504 202.293088 130.671875 207.2890625 C129.91390625 208.03929687 129.1559375 208.78953125 128.375 209.5625 C127.70210937 210.22378906 127.02921875 210.88507813 126.3359375 211.56640625 C123.10418565 214.93326478 120.07317521 218.48779976 117 222 C111.72 227.28 106.44 232.56 101 238 C182.675 238.495 182.675 238.495 266 239 C266 263.09 266 287.18 266 312 C175.91 312 85.82 312 -7 312 C-7 241 -7 241 18 216 C20.31 213.36 22.62 210.72 25 208 C26.58363463 206.35498418 28.18545818 204.72709569 29.8125 203.125 C30.66070313 202.28453125 31.50890625 201.4440625 32.3828125 200.578125 C34.12760417 198.859375 35.87239583 197.140625 37.6171875 195.421875 C41.36541938 191.70782153 45.06413637 188.00716648 48.5 184 C53.52425481 178.14033045 59.12241912 172.83463192 64.6171875 167.421875 C68.36541938 163.70782153 72.06413637 160.00716648 75.5 156 C80.52425481 150.14033045 86.12241912 144.83463192 91.6171875 139.421875 C95.36541938 135.70782153 99.06413637 132.00716648 102.5 128 C107.52425481 122.14033045 113.12241912 116.83463192 118.6171875 111.421875 C122.34718359 107.72589103 126.03022402 104.04588832 129.4453125 100.0546875 C134.40204112 94.27232197 139.91754953 89.02693513 145.33691406 83.68359375 C146.74482315 82.29367409 148.14980398 80.90079023 149.5546875 79.5078125 C150.38468262 78.68941895 151.21467773 77.87102539 152.06982422 77.02783203 C154.0482742 75.14739471 154.0482742 75.14739471 155 73 C78.275 72.505 78.275 72.505 0 72 C0 48.24 0 24.48 0 0 Z " fill="#000000" transform="translate(1423,325)"/>
<path d="M0 0 C0 23.76 0 47.52 0 72 C-7.26 72.66 -14.52 73.32 -22 74 C-29.86274554 76.16716012 -29.86274554 76.16716012 -36.8125 79.4375 C-37.49957031 79.82808594 -38.18664063 80.21867187 -38.89453125 80.62109375 C-49.46914381 87.54658213 -54.32398169 97.90084614 -57 110 C-58.70743317 119.10340643 -59.38149538 128.06451769 -59.625 137.3125 C-59.810625 143.5928125 -59.810625 143.5928125 -60 150 C-44.49 150 -28.98 150 -13 150 C-13 175.74 -13 201.48 -13 228 C-28.51 228 -44.02 228 -60 228 C-60 305.22 -60 382.44 -60 462 C-86.73 462 -113.46 462 -141 462 C-141.04417202 419.98628881 -141.08106904 377.9725997 -141.10213066 335.9588719 C-141.10463178 330.98771795 -141.10722045 326.01656404 -141.10986328 321.04541016 C-141.1103879 320.05583089 -141.11091252 319.06625162 -141.11145304 318.0466851 C-141.12013241 302.06793777 -141.13588865 286.08920498 -141.15430559 270.11046624 C-141.17307357 253.68901105 -141.18413124 237.26756342 -141.18817699 220.84609795 C-141.19090781 210.73045184 -141.19950174 200.61484684 -141.21583293 190.4992134 C-141.22648517 183.54263533 -141.2295822 176.5860782 -141.22700275 169.62949258 C-141.22573414 165.62861481 -141.22754146 161.62780835 -141.23841095 157.62694359 C-141.36160145 109.79312687 -137.18158818 64.6431542 -102 29 C-76.27255096 3.22772962 -35.14355645 -5.85725941 0 0 Z " fill="#000000" transform="translate(1869,175)"/>
<path d="M0 0 C26.73 0 53.46 0 81 0 C81 26.07 81 52.14 81 79 C99.48 79 117.96 79 137 79 C137 102.43 137 125.86 137 150 C118.52 150 100.04 150 81 150 C81.09675135 173.13718018 81.09675135 173.13718018 81.22207737 196.27415657 C81.27181524 204.55303433 81.31729384 212.8318612 81.34643555 221.11083984 C81.36953352 227.66885069 81.40306106 234.22671465 81.44870156 240.78460872 C81.47247622 244.25145832 81.4913074 247.71816389 81.49761391 251.18509293 C81.50488035 255.0716351 81.5354505 258.95781909 81.56762695 262.84423828 C81.56619186 263.97209747 81.56475677 265.09995667 81.5632782 266.26199341 C81.74003948 281.47964932 84.66178463 296.53459985 95.4609375 307.73828125 C105.99560232 317.12223653 118.88381872 318.93038265 132.46484375 319.57421875 C133.70228333 319.63772522 133.70228333 319.63772522 134.96472168 319.70251465 C136.97630215 319.80524295 138.98812902 319.90312768 141 320 C141.02312484 329.50074325 141.0409158 339.00147688 141.05181217 348.50224209 C141.05704069 352.91337004 141.06413777 357.3244788 141.07543945 361.7355957 C141.08626944 365.98901115 141.09227707 370.24240809 141.09487724 374.49583626 C141.09673129 376.12221633 141.10035152 377.74859534 141.10573006 379.37496758 C141.11294198 381.64510193 141.11399088 383.91515885 141.11352539 386.18530273 C141.115746 387.47991928 141.11796661 388.77453583 141.12025452 390.10838318 C141 393 141 393 140 394 C106.26015217 397.88398248 70.89868608 392.65112351 43.6015625 371.3828125 C16.34103336 349.45020729 4.72433714 317.40543706 0.62924767 283.5548687 C-0.59493119 272.05574355 -0.39150597 260.51018834 -0.34057617 248.96118164 C-0.33804393 246.22875728 -0.34007794 243.49634048 -0.34190369 240.76391602 C-0.34346078 234.93221401 -0.33421784 229.10061434 -0.31719017 223.26893806 C-0.29258875 214.83780264 -0.28497356 206.40671562 -0.2812262 197.9755482 C-0.27469444 184.28957911 -0.25482328 170.6036643 -0.22631836 156.91772461 C-0.19869223 143.63973254 -0.17750079 130.36175532 -0.16479492 117.08374023 C-0.16400675 116.2623851 -0.16321858 115.44102996 -0.16240653 114.59478528 C-0.15849082 110.47342223 -0.15469984 106.35205907 -0.15097082 102.23069584 C-0.11997716 68.15374909 -0.06473008 34.07690352 0 0 Z " fill="#000000" transform="translate(2052,246)"/>
<path d="M0 0 C27.39 0 54.78 0 83 0 C83 102.96 83 205.92 83 312 C55.61 312 28.22 312 0 312 C0 209.04 0 106.08 0 0 Z " fill="#000000" transform="translate(1911,325)"/>
</svg>
